
<svg xmlns="http://www.w3.org/2000/svg" xmlns:xlink="http://www.w3.org/1999/xlink" width="24" height="18" viewBox="0 0 24 18">
  <defs>
    <clipPath id="clip-path">
      <path id="_Icon_Fill" data-name="🎨 Icon Fill" d="M8.009,18a8.517,8.517,0,0,1-1.587-.815l-.209-.122A.432.432,0,0,1,6,16.687a4.035,4.035,0,0,1,.515-1.039l.075-.126a14.834,14.834,0,0,1-6.322-5.6A1.685,1.685,0,0,1,0,9a1.741,1.741,0,0,1,.267-.925A15.728,15.728,0,0,1,5.275,3.153,12.914,12.914,0,0,1,12,1.285a13.228,13.228,0,0,1,2.411.228l.722-1.3A.432.432,0,0,1,15.509,0a8.072,8.072,0,0,1,1.553.8l.229.135A.425.425,0,0,1,17.5,1.3a.377.377,0,0,1-.013.121c-1.39,2.484-2.8,5.016-4.157,7.465-1.407,2.532-2.858,5.145-4.294,7.709l-.656,1.192A.444.444,0,0,1,8.009,18ZM6.817,4.273A13.464,13.464,0,0,0,1.714,9a13.4,13.4,0,0,0,5.719,5.022l1.045-1.889A6,6,0,0,1,6,7.286,5.94,5.94,0,0,1,6.817,4.273ZM12,3.214A4.076,4.076,0,0,0,7.928,7.286a.643.643,0,0,0,1.285,0A2.789,2.789,0,0,1,12,4.5a.643.643,0,1,0,0-1.285Zm0,13.5h0v0l.99-1.766A12.471,12.471,0,0,0,22.286,9a13.845,13.845,0,0,0-3.777-3.938l.844-1.5a15.226,15.226,0,0,1,4.379,4.513,1.723,1.723,0,0,1,0,1.848,14.438,14.438,0,0,1-1.459,1.943A13.536,13.536,0,0,1,12,16.714Zm2.14-3.83,0,0,3.748-6.72A6.313,6.313,0,0,1,18,7.286a6.027,6.027,0,0,1-3.853,5.6Z" fill="#5a6487"/>
    </clipPath>
  </defs>
  <g id="_Icon" data-name="★ Icon" transform="translate(0 0)">
    <g id="Group_27" data-name="Group 27" transform="translate(0 0)">
      <path id="_Icon_Fill-2" data-name="🎨 Icon Fill" d="M8.009,18a8.517,8.517,0,0,1-1.587-.815l-.209-.122A.432.432,0,0,1,6,16.687a4.035,4.035,0,0,1,.515-1.039l.075-.126a14.834,14.834,0,0,1-6.322-5.6A1.685,1.685,0,0,1,0,9a1.741,1.741,0,0,1,.267-.925A15.728,15.728,0,0,1,5.275,3.153,12.914,12.914,0,0,1,12,1.285a13.228,13.228,0,0,1,2.411.228l.722-1.3A.432.432,0,0,1,15.509,0a8.072,8.072,0,0,1,1.553.8l.229.135A.425.425,0,0,1,17.5,1.3a.377.377,0,0,1-.013.121c-1.39,2.484-2.8,5.016-4.157,7.465-1.407,2.532-2.858,5.145-4.294,7.709l-.656,1.192A.444.444,0,0,1,8.009,18ZM6.817,4.273A13.464,13.464,0,0,0,1.714,9a13.4,13.4,0,0,0,5.719,5.022l1.045-1.889A6,6,0,0,1,6,7.286,5.94,5.94,0,0,1,6.817,4.273ZM12,3.214A4.076,4.076,0,0,0,7.928,7.286a.643.643,0,0,0,1.285,0A2.789,2.789,0,0,1,12,4.5a.643.643,0,1,0,0-1.285Zm0,13.5h0v0l.99-1.766A12.471,12.471,0,0,0,22.286,9a13.845,13.845,0,0,0-3.777-3.938l.844-1.5a15.226,15.226,0,0,1,4.379,4.513,1.723,1.723,0,0,1,0,1.848,14.438,14.438,0,0,1-1.459,1.943A13.536,13.536,0,0,1,12,16.714Zm2.14-3.83,0,0,3.748-6.72A6.313,6.313,0,0,1,18,7.286a6.027,6.027,0,0,1-3.853,5.6Z" transform="translate(0 0)" fill="#5a6487"/>
    </g>
  </g>
</svg>