<svg width="12" height="12" viewBox="0 0 12 12" fill="none" xmlns="http://www.w3.org/2000/svg">
<path fill-rule="evenodd" clip-rule="evenodd" d="M8.79905 7.73869H8.24298L8.04589 7.54875C8.89056 6.56388 9.32697 5.22024 9.08765 3.79218C8.75682 1.83651 7.1238 0.274794 5.15291 0.0356143C2.17546 -0.330196 -0.330386 2.17418 0.0356343 5.14989C0.274954 7.11963 1.83759 8.75169 3.7944 9.08233C5.2233 9.32151 6.56773 8.88536 7.55317 8.04118L7.74322 8.23815V8.7939L10.7348 11.7837C11.0233 12.0721 11.495 12.0721 11.7835 11.7837C12.0721 11.4953 12.0721 11.0239 11.7835 10.7355L8.79905 7.73869ZM4.57571 7.73869C2.82302 7.73869 1.40821 6.3247 1.40821 4.57304C1.40821 2.82138 2.82303 1.40739 4.57571 1.40739C6.3284 1.40739 7.74321 2.82138 7.74321 4.57304C7.74321 6.3247 6.32839 7.73869 4.57571 7.73869Z" fill="#ACB9C6"/>
</svg>