
<svg xmlns="http://www.w3.org/2000/svg" width="24" height="15.429" viewBox="0 0 24 15.429">
  <path id="eye" d="M22.286,10.286a13.171,13.171,0,0,0-5.1-4.728A5.854,5.854,0,0,1,18,8.571a5.777,5.777,0,0,1-1.761,4.239A5.782,5.782,0,0,1,12,14.571,5.776,5.776,0,0,1,7.761,12.81,5.779,5.779,0,0,1,6,8.571a5.854,5.854,0,0,1,.817-3.013,13.164,13.164,0,0,0-5.1,4.728,13.826,13.826,0,0,0,4.467,4.373,11.219,11.219,0,0,0,11.639,0A13.826,13.826,0,0,0,22.286,10.286ZM12.643,5.143A.64.64,0,0,0,12,4.5,3.919,3.919,0,0,0,9.127,5.7a3.918,3.918,0,0,0-1.2,2.872.643.643,0,1,0,1.285,0A2.788,2.788,0,0,1,12,5.786a.64.64,0,0,0,.643-.643ZM24,10.286a1.852,1.852,0,0,1-.268.924,14.208,14.208,0,0,1-5.043,4.935A12.972,12.972,0,0,1,5.31,16.138,14.288,14.288,0,0,1,.268,11.21a1.727,1.727,0,0,1,0-1.848A14.308,14.308,0,0,1,5.311,4.433a12.95,12.95,0,0,1,13.379,0,14.286,14.286,0,0,1,5.042,4.929A1.852,1.852,0,0,1,24,10.286Z" transform="translate(0 -2.571)" fill="#a6b1c6"/>
</svg>